# MagicaVoxel @ Ephtracy

# group
g Slim1

# material
mtllib Slim1.mtl
usemtl palette

# normals
vn -1 0 0
vn 1 0 0
vn 0 0 1
vn 0 0 -1
vn 0 -1 0
vn 0 1 0

# texcoords
vt 0.0292969 0.5
vt 0.0566406 0.5
vt 0.306641 0.5
vt 0.701172 0.5
vt 0.958984 0.5

# verts
v -10 6 -0
v -10 6 -1
v -10 8 -0
v -10 8 -1
v -8 5 -0
v -8 5 -1
v -8 6 -0
v -8 6 -1
v -7 4 -0
v -7 4 -1
v -7 5 -0
v -7 5 -1
v -6 3 -0
v -6 3 -1
v -6 4 -0
v -6 4 -1
v -5 3 -1
v -5 3 -2
v -5 5 -1
v -5 5 -2
v -3 2 -1
v -3 2 -4
v -3 3 1
v -3 3 -0
v -3 3 -1
v -3 3 -2
v -3 3 -4
v -3 5 1
v -3 5 -0
v -3 5 -1
v -3 5 -2
v -3 6 -1
v -3 6 -2
v -2 1 -1
v -2 1 -5
v -2 2 -0
v -2 2 -1
v -2 2 -4
v -2 2 -5
v -2 3 2
v -2 3 1
v -2 3 -0
v -2 3 -1
v -2 5 2
v -2 5 1
v -2 6 -1
v -2 6 -2
v -2 7 -1
v -2 7 -2
v -2 8 -1
v -2 8 -2
v -1 1 -0
v -1 1 -1
v -1 1 -5
v -1 1 -6
v -1 2 1
v -1 2 -0
v -1 2 -1
v -1 2 -4
v -1 2 -5
v -1 3 1
v -1 3 -0
v -1 3 -4
v -1 3 -6
v -1 5 1
v -1 5 -0
v -1 6 1
v -1 6 -0
v 0 3 -2
v 0 3 -4
v 0 5 -2
v 0 5 -4
v 0 8 -1
v 0 8 -2
v 0 9 -1
v 0 9 -2
v 2 3 -4
v 2 3 -6
v 2 4 -4
v 2 4 -6
v 2 5 -2
v 2 5 -3
v 2 7 -2
v 2 7 -3
v 2 8 -2
v 2 8 -3
v 4 4 -3
v 4 4 -4
v 4 5 -3
v 4 5 -4
v 5 3 -5
v 5 3 -6
v 5 4 -5
v 5 4 -6
v 2 2 1
v 2 2 -0
v 2 3 1
v 2 3 -0
v 2 4 -3
v 2 4 -4
v 2 5 -3
v 2 5 -4
v 2 7 -0
v 2 7 -1
v 2 8 -0
v 2 8 -1
v 2 8 -2
v 2 9 -1
v 2 9 -2
v 3 1 -0
v 3 1 -1
v 3 1 -5
v 3 1 -6
v 3 2 -0
v 3 2 -1
v 3 2 -5
v 3 2 -6
v 3 3 2
v 3 3 1
v 3 3 -5
v 3 3 -6
v 3 4 -5
v 3 4 -6
v 3 5 2
v 3 5 1
v 3 5 -0
v 3 6 1
v 3 6 -0
v 4 1 -1
v 4 1 -5
v 4 2 -0
v 4 2 -1
v 4 2 -5
v 4 2 -6
v 4 3 -0
v 4 3 -1
v 4 3 -5
v 4 3 -6
v 4 5 -0
v 4 5 -1
v 4 7 -0
v 4 7 -1
v 4 7 -3
v 4 8 -1
v 4 8 -3
v 5 2 -1
v 5 2 -5
v 5 3 1
v 5 3 -0
v 5 3 -1
v 5 3 -5
v 5 5 1
v 5 5 -0
v 5 6 -1
v 5 6 -3
v 5 7 -1
v 5 7 -3
v 6 3 -0
v 6 3 -6
v 6 4 -1
v 6 4 -2
v 6 4 -4
v 6 4 -6
v 6 5 -0
v 6 5 -1
v 6 5 -2
v 6 5 -3
v 6 5 -4
v 6 6 -1
v 6 6 -3
v -2 3 2
v -2 5 2
v 3 3 2
v 3 5 2
v -3 3 1
v -3 5 1
v -2 3 1
v -2 5 1
v -1 2 1
v -1 3 1
v -1 5 1
v -1 6 1
v 2 2 1
v 2 3 1
v 3 3 1
v 3 5 1
v 3 6 1
v 5 3 1
v 5 5 1
v -10 6 -0
v -10 8 -0
v -8 5 -0
v -8 6 -0
v -7 4 -0
v -7 5 -0
v -6 3 -0
v -6 4 -0
v -3 3 -0
v -3 5 -0
v -2 2 -0
v -2 3 -0
v -2 7 -0
v -2 8 -0
v -1 1 -0
v -1 2 -0
v -1 3 -0
v -1 5 -0
v -1 6 -0
v -1 7 -0
v 2 2 -0
v 2 3 -0
v 2 7 -0
v 2 8 -0
v 3 1 -0
v 3 2 -0
v 3 5 -0
v 3 6 -0
v 4 2 -0
v 4 3 -0
v 4 5 -0
v 4 7 -0
v 5 3 -0
v 5 5 -0
v 6 3 -0
v 6 5 -0
v -3 2 -1
v -3 3 -1
v -2 1 -1
v -2 2 -1
v -2 3 -1
v -1 1 -1
v -1 2 -1
v 0 8 -1
v 0 9 -1
v 2 7 -1
v 2 8 -1
v 2 9 -1
v 3 1 -1
v 3 2 -1
v 4 1 -1
v 4 2 -1
v 4 3 -1
v 4 5 -1
v 4 7 -1
v 4 8 -1
v 5 2 -1
v 5 3 -1
v 5 6 -1
v 5 7 -1
v 6 5 -1
v 6 6 -1
v -10 6 -1
v -10 8 -1
v -8 5 -1
v -8 6 -1
v -7 4 -1
v -7 5 -1
v -6 3 -1
v -6 4 -1
v -5 3 -1
v -5 5 -1
v -3 5 -1
v -3 6 -1
v -2 6 -1
v -2 7 -1
v -2 8 -1
v -5 3 -2
v -5 5 -2
v -3 3 -2
v -3 5 -2
v -3 6 -2
v -2 6 -2
v -2 7 -2
v -2 8 -2
v 0 3 -2
v 0 5 -2
v 0 8 -2
v 0 9 -2
v 2 5 -2
v 2 7 -2
v 2 8 -2
v 2 9 -2
v 2 4 -3
v 2 5 -3
v 2 7 -3
v 2 8 -3
v 4 4 -3
v 4 5 -3
v 4 7 -3
v 4 8 -3
v 5 6 -3
v 5 7 -3
v 6 5 -3
v 6 6 -3
v -3 2 -4
v -3 3 -4
v -2 2 -4
v -1 2 -4
v -1 3 -4
v 0 3 -4
v 0 5 -4
v 2 3 -4
v 2 4 -4
v 2 5 -4
v 4 4 -4
v 4 5 -4
v 6 4 -4
v 6 5 -4
v -2 1 -5
v -2 2 -5
v -1 1 -5
v -1 2 -5
v 3 1 -5
v 3 2 -5
v 3 3 -5
v 3 4 -5
v 4 1 -5
v 4 2 -5
v 4 3 -5
v 5 2 -5
v 5 3 -5
v 5 4 -5
v -1 1 -6
v -1 3 -6
v 2 3 -6
v 2 4 -6
v 3 1 -6
v 3 2 -6
v 3 3 -6
v 3 4 -6
v 4 2 -6
v 4 3 -6
v 5 3 -6
v 5 4 -6
v 6 3 -6
v 6 4 -6
v -1 1 -0
v 3 1 -0
v -2 1 -1
v -1 1 -1
v 3 1 -1
v 4 1 -1
v -2 1 -5
v -1 1 -5
v 3 1 -5
v 4 1 -5
v -1 1 -6
v 3 1 -6
v -1 2 1
v 2 2 1
v -2 2 -0
v -1 2 -0
v 2 2 -0
v 3 2 -0
v 4 2 -0
v -3 2 -1
v -2 2 -1
v -1 2 -1
v 3 2 -1
v 4 2 -1
v 5 2 -1
v -3 2 -4
v -2 2 -4
v 3 2 -5
v 4 2 -5
v 5 2 -5
v 3 2 -6
v 4 2 -6
v -2 3 2
v 3 3 2
v -3 3 1
v -2 3 1
v -1 3 1
v 2 3 1
v 3 3 1
v 5 3 1
v -6 3 -0
v -3 3 -0
v -2 3 -0
v -1 3 -0
v 2 3 -0
v 4 3 -0
v 5 3 -0
v 6 3 -0
v -6 3 -1
v -5 3 -1
v -3 3 -1
v -2 3 -1
v 4 3 -1
v 5 3 -1
v -5 3 -2
v -3 3 -2
v 5 3 -5
v 5 3 -6
v 6 3 -6
v -7 4 -0
v -6 4 -0
v -7 4 -1
v -6 4 -1
v -8 5 -0
v -7 5 -0
v -8 5 -1
v -7 5 -1
v -10 6 -0
v -8 6 -0
v -10 6 -1
v -8 6 -1
v -2 2 -4
v -1 2 -4
v -2 2 -5
v -1 2 -5
v -3 3 -2
v 0 3 -2
v -3 3 -4
v -1 3 -4
v 0 3 -4
v 2 3 -4
v 3 3 -5
v 4 3 -5
v -1 3 -6
v 2 3 -6
v 3 3 -6
v 4 3 -6
v 2 4 -3
v 4 4 -3
v 2 4 -4
v 4 4 -4
v 6 4 -4
v 3 4 -5
v 5 4 -5
v 2 4 -6
v 3 4 -6
v 5 4 -6
v 6 4 -6
v -2 5 2
v 3 5 2
v -3 5 1
v -2 5 1
v -1 5 1
v 3 5 1
v 5 5 1
v -3 5 -0
v -1 5 -0
v 3 5 -0
v 4 5 -0
v 5 5 -0
v 6 5 -0
v -5 5 -1
v -3 5 -1
v 4 5 -1
v 6 5 -1
v -5 5 -2
v -3 5 -2
v 0 5 -2
v 2 5 -2
v 2 5 -3
v 4 5 -3
v 6 5 -3
v 0 5 -4
v 2 5 -4
v 4 5 -4
v 6 5 -4
v -1 6 1
v 3 6 1
v -1 6 -0
v 3 6 -0
v -3 6 -1
v -2 6 -1
v 5 6 -1
v 6 6 -1
v -3 6 -2
v -2 6 -2
v 5 6 -3
v 6 6 -3
v 2 7 -0
v 4 7 -0
v 2 7 -1
v 4 7 -1
v 5 7 -1
v 4 7 -3
v 5 7 -3
v -10 8 -0
v -2 8 -0
v 2 8 -0
v -10 8 -1
v -2 8 -1
v 0 8 -1
v 2 8 -1
v 4 8 -1
v -2 8 -2
v 0 8 -2
v 2 8 -2
v 2 8 -3
v 4 8 -3
v 0 9 -1
v 2 9 -1
v 0 9 -2
v 2 9 -2

# faces
f 3/5/1 2/5/1 1/5/1
f 4/5/1 2/5/1 3/5/1
f 7/5/1 6/5/1 5/5/1
f 8/5/1 6/5/1 7/5/1
f 11/5/1 10/5/1 9/5/1
f 12/5/1 10/5/1 11/5/1
f 15/5/1 14/5/1 13/5/1
f 16/5/1 14/5/1 15/5/1
f 19/2/1 18/2/1 17/2/1
f 20/2/1 18/2/1 19/2/1
f 25/3/1 22/3/1 21/3/1
f 26/3/1 22/3/1 25/3/1
f 27/3/1 22/3/1 26/3/1
f 28/2/1 24/2/1 23/2/1
f 29/2/1 24/2/1 28/2/1
f 32/2/1 31/2/1 30/2/1
f 33/2/1 31/2/1 32/2/1
f 37/3/1 35/3/1 34/3/1
f 38/3/1 35/3/1 37/3/1
f 39/3/1 35/3/1 38/3/1
f 42/3/1 37/3/1 36/3/1
f 43/3/1 37/3/1 42/3/1
f 44/2/1 41/2/1 40/2/1
f 45/2/1 41/2/1 44/2/1
f 48/2/1 47/2/1 46/2/1
f 49/2/1 47/2/1 48/2/1
f 50/1/1 49/1/1 48/1/1
f 51/1/1 49/1/1 50/1/1
f 57/3/1 53/3/1 52/3/1
f 58/3/1 53/3/1 57/3/1
f 60/3/1 55/3/1 54/3/1
f 61/3/1 57/3/1 56/3/1
f 62/3/1 57/3/1 61/3/1
f 63/3/1 60/3/1 59/3/1
f 64/3/1 55/3/1 60/3/1
f 64/3/1 60/3/1 63/3/1
f 67/2/1 66/2/1 65/2/1
f 68/2/1 66/2/1 67/2/1
f 71/2/1 70/2/1 69/2/1
f 72/2/1 70/2/1 71/2/1
f 75/1/1 74/1/1 73/1/1
f 76/1/1 74/1/1 75/1/1
f 79/2/1 78/2/1 77/2/1
f 80/2/1 78/2/1 79/2/1
f 83/2/1 82/2/1 81/2/1
f 84/2/1 82/2/1 83/2/1
f 85/1/1 84/1/1 83/1/1
f 86/1/1 84/1/1 85/1/1
f 89/2/1 88/2/1 87/2/1
f 90/2/1 88/2/1 89/2/1
f 93/2/1 92/2/1 91/2/1
f 94/2/1 92/2/1 93/2/1
f 95/3/2 96/3/2 97/3/2
f 97/3/2 96/3/2 98/3/2
f 99/2/2 100/2/2 101/2/2
f 101/2/2 100/2/2 102/2/2
f 103/1/2 104/1/2 105/1/2
f 105/1/2 104/1/2 106/1/2
f 106/1/2 107/1/2 108/1/2
f 108/1/2 107/1/2 109/1/2
f 110/3/2 111/3/2 114/3/2
f 114/3/2 111/3/2 115/3/2
f 112/3/2 113/3/2 116/3/2
f 116/3/2 113/3/2 117/3/2
f 120/2/2 121/2/2 122/2/2
f 122/2/2 121/2/2 123/2/2
f 118/2/2 119/2/2 124/2/2
f 124/2/2 119/2/2 125/2/2
f 125/2/2 126/2/2 127/2/2
f 127/2/2 126/2/2 128/2/2
f 129/3/2 130/3/2 132/3/2
f 132/3/2 130/3/2 133/3/2
f 131/3/2 132/3/2 135/3/2
f 135/3/2 132/3/2 136/3/2
f 133/3/2 134/3/2 137/3/2
f 137/3/2 134/3/2 138/3/2
f 139/2/2 140/2/2 141/2/2
f 141/2/2 140/2/2 142/2/2
f 142/1/2 143/1/2 144/1/2
f 144/1/2 143/1/2 145/1/2
f 146/3/2 147/3/2 150/3/2
f 150/3/2 147/3/2 151/3/2
f 148/2/2 149/2/2 152/2/2
f 152/2/2 149/2/2 153/2/2
f 154/2/2 155/2/2 156/2/2
f 156/2/2 155/2/2 157/2/2
f 158/2/2 159/2/2 160/2/2
f 160/2/2 159/2/2 161/2/2
f 161/2/2 159/2/2 162/2/2
f 162/2/2 159/2/2 163/2/2
f 158/2/2 160/2/2 164/2/2
f 160/4/2 161/4/2 165/4/2
f 164/2/2 160/2/2 165/2/2
f 161/2/2 162/2/2 166/2/2
f 165/4/2 161/4/2 166/4/2
f 166/2/2 162/2/2 167/2/2
f 167/2/2 162/2/2 168/2/2
f 165/2/2 166/2/2 169/2/2
f 166/2/2 167/2/2 169/2/2
f 169/2/2 167/2/2 170/2/2
f 173/2/3 172/2/3 171/2/3
f 174/2/3 172/2/3 173/2/3
f 177/2/3 176/2/3 175/2/3
f 178/2/3 176/2/3 177/2/3
f 183/3/3 180/3/3 179/3/3
f 184/3/3 180/3/3 183/3/3
f 186/2/3 182/2/3 181/2/3
f 187/2/3 182/2/3 186/2/3
f 188/2/3 186/2/3 185/2/3
f 189/2/3 186/2/3 188/2/3
f 193/5/3 191/5/3 190/5/3
f 195/5/3 193/5/3 192/5/3
f 197/5/3 195/5/3 194/5/3
f 198/5/3 197/5/3 196/5/3
f 199/5/3 193/5/3 195/5/3
f 199/5/3 197/5/3 198/5/3
f 199/5/3 195/5/3 197/5/3
f 202/5/3 191/5/3 193/5/3
f 202/5/3 193/5/3 199/5/3
f 203/5/3 191/5/3 202/5/3
f 205/3/3 201/3/3 200/3/3
f 206/3/3 201/3/3 205/3/3
f 207/5/3 202/5/3 199/5/3
f 208/5/3 202/5/3 207/5/3
f 209/1/3 203/1/3 202/1/3
f 209/5/3 202/5/3 208/5/3
f 210/3/3 205/3/3 204/3/3
f 212/1/3 203/1/3 209/1/3
f 212/2/3 209/2/3 208/2/3
f 213/1/3 203/1/3 212/1/3
f 214/3/3 211/3/3 210/3/3
f 214/3/3 210/3/3 204/3/3
f 215/3/3 211/3/3 214/3/3
f 217/2/3 212/2/3 208/2/3
f 218/3/3 211/3/3 215/3/3
f 219/3/3 211/3/3 218/3/3
f 220/2/3 217/2/3 216/2/3
f 221/2/3 212/2/3 217/2/3
f 221/2/3 217/2/3 220/2/3
f 224/2/3 223/2/3 222/2/3
f 225/2/3 223/2/3 224/2/3
f 229/3/3 227/3/3 226/3/3
f 230/3/3 227/3/3 229/3/3
f 231/3/3 229/3/3 228/3/3
f 232/3/3 229/3/3 231/3/3
f 236/1/3 234/1/3 233/1/3
f 237/1/3 234/1/3 236/1/3
f 240/3/3 239/3/3 238/3/3
f 241/3/3 239/3/3 240/3/3
f 244/1/3 236/1/3 235/1/3
f 245/1/3 236/1/3 244/1/3
f 246/3/3 242/3/3 241/3/3
f 247/3/3 242/3/3 246/3/3
f 248/2/3 244/2/3 243/2/3
f 249/2/3 244/2/3 248/2/3
f 250/2/3 248/2/3 243/2/3
f 251/2/3 248/2/3 250/2/3
f 252/5/4 253/5/4 255/5/4
f 254/5/4 255/5/4 257/5/4
f 256/5/4 257/5/4 259/5/4
f 258/5/4 259/5/4 260/5/4
f 257/5/4 255/5/4 261/5/4
f 260/5/4 259/5/4 261/5/4
f 259/5/4 257/5/4 261/5/4
f 261/5/4 255/5/4 262/5/4
f 255/5/4 253/5/4 263/5/4
f 262/5/4 255/5/4 263/5/4
f 263/5/4 253/5/4 264/5/4
f 264/5/4 253/5/4 265/5/4
f 265/5/4 253/5/4 266/5/4
f 267/2/4 268/2/4 269/2/4
f 269/2/4 268/2/4 270/2/4
f 269/2/4 270/2/4 272/2/4
f 270/2/4 271/2/4 272/2/4
f 269/2/4 272/2/4 275/2/4
f 272/2/4 273/2/4 275/2/4
f 275/2/4 273/2/4 276/2/4
f 273/1/4 274/1/4 277/1/4
f 276/2/4 273/2/4 279/2/4
f 277/1/4 278/1/4 280/1/4
f 279/2/4 273/2/4 280/2/4
f 273/1/4 277/1/4 280/1/4
f 280/1/4 278/1/4 281/1/4
f 281/1/4 278/1/4 282/1/4
f 283/2/4 284/2/4 287/2/4
f 284/2/4 285/2/4 287/2/4
f 287/2/4 285/2/4 288/2/4
f 285/1/4 286/1/4 289/1/4
f 288/2/4 285/2/4 289/2/4
f 289/1/4 286/1/4 290/1/4
f 288/2/4 289/2/4 291/2/4
f 291/2/4 289/2/4 292/2/4
f 288/2/4 291/2/4 293/2/4
f 293/2/4 291/2/4 294/2/4
f 295/3/4 296/3/4 297/3/4
f 297/3/4 296/3/4 298/3/4
f 298/3/4 296/3/4 299/3/4
f 300/2/4 301/2/4 302/2/4
f 302/2/4 301/2/4 303/2/4
f 303/2/4 301/2/4 304/2/4
f 305/2/4 306/2/4 307/2/4
f 307/2/4 306/2/4 308/2/4
f 309/3/4 310/3/4 311/3/4
f 311/3/4 310/3/4 312/3/4
f 313/3/4 314/3/4 317/3/4
f 317/3/4 314/3/4 318/3/4
f 315/2/4 316/2/4 319/2/4
f 318/3/4 319/3/4 320/3/4
f 319/2/4 316/2/4 321/2/4
f 320/3/4 319/3/4 321/3/4
f 321/2/4 316/2/4 322/2/4
f 323/3/4 324/3/4 325/3/4
f 323/3/4 325/3/4 327/3/4
f 327/3/4 325/3/4 328/3/4
f 325/2/4 326/2/4 329/2/4
f 328/3/4 325/3/4 329/3/4
f 329/2/4 326/2/4 330/2/4
f 328/3/4 329/3/4 331/3/4
f 331/3/4 329/3/4 332/3/4
f 333/2/4 334/2/4 335/2/4
f 335/2/4 334/2/4 336/2/4
f 340/3/5 338/3/5 337/3/5
f 341/3/5 338/3/5 340/3/5
f 343/3/5 340/3/5 339/3/5
f 343/3/5 342/3/5 341/3/5
f 343/3/5 341/3/5 340/3/5
f 344/3/5 342/3/5 343/3/5
f 345/3/5 342/3/5 344/3/5
f 346/3/5 342/3/5 345/3/5
f 347/3/5 345/3/5 344/3/5
f 348/3/5 345/3/5 347/3/5
f 352/3/5 350/3/5 349/3/5
f 353/3/5 350/3/5 352/3/5
f 357/3/5 352/3/5 351/3/5
f 358/3/5 352/3/5 357/3/5
f 359/3/5 355/3/5 354/3/5
f 360/3/5 355/3/5 359/3/5
f 362/3/5 357/3/5 356/3/5
f 363/3/5 357/3/5 362/3/5
f 365/3/5 361/3/5 360/3/5
f 366/3/5 361/3/5 365/3/5
f 367/3/5 365/3/5 364/3/5
f 368/3/5 365/3/5 367/3/5
f 372/2/5 370/2/5 369/2/5
f 373/2/5 370/2/5 372/2/5
f 374/2/5 370/2/5 373/2/5
f 375/2/5 370/2/5 374/2/5
f 378/2/5 372/2/5 371/2/5
f 378/2/5 373/2/5 372/2/5
f 379/2/5 373/2/5 378/2/5
f 380/2/5 373/2/5 379/2/5
f 381/2/5 375/2/5 374/2/5
f 381/2/5 376/2/5 375/2/5
f 382/2/5 376/2/5 381/2/5
f 383/2/5 376/2/5 382/2/5
f 385/5/5 379/5/5 378/5/5
f 385/5/5 378/5/5 377/5/5
f 386/5/5 379/5/5 385/5/5
f 387/5/5 379/5/5 386/5/5
f 388/5/5 379/5/5 387/5/5
f 389/2/5 384/2/5 383/2/5
f 389/2/5 383/2/5 382/2/5
f 390/2/5 384/2/5 389/2/5
f 391/2/5 387/2/5 386/2/5
f 392/2/5 387/2/5 391/2/5
f 393/2/5 384/2/5 390/2/5
f 394/2/5 384/2/5 393/2/5
f 395/2/5 384/2/5 394/2/5
f 398/5/5 397/5/5 396/5/5
f 399/5/5 397/5/5 398/5/5
f 402/5/5 401/5/5 400/5/5
f 403/5/5 401/5/5 402/5/5
f 406/5/5 405/5/5 404/5/5
f 407/5/5 405/5/5 406/5/5
f 408/3/6 409/3/6 410/3/6
f 410/3/6 409/3/6 411/3/6
f 412/3/6 413/3/6 414/3/6
f 414/3/6 413/3/6 415/3/6
f 415/3/6 413/3/6 416/3/6
f 416/3/6 417/3/6 420/3/6
f 415/3/6 416/3/6 420/3/6
f 420/3/6 417/3/6 421/3/6
f 418/3/6 419/3/6 422/3/6
f 422/3/6 419/3/6 423/3/6
f 424/2/6 425/2/6 426/2/6
f 426/2/6 425/2/6 427/2/6
f 426/2/6 427/2/6 429/2/6
f 427/2/6 428/2/6 429/2/6
f 429/2/6 428/2/6 430/2/6
f 426/2/6 429/2/6 431/2/6
f 431/2/6 429/2/6 432/2/6
f 430/2/6 428/2/6 433/2/6
f 433/2/6 428/2/6 434/2/6
f 435/2/6 436/2/6 438/2/6
f 438/2/6 436/2/6 439/2/6
f 439/2/6 436/2/6 440/2/6
f 437/2/6 438/2/6 442/2/6
f 438/2/6 439/2/6 442/2/6
f 442/2/6 439/2/6 443/2/6
f 440/2/6 441/2/6 444/2/6
f 444/2/6 441/2/6 445/2/6
f 445/2/6 441/2/6 446/2/6
f 446/2/6 447/2/6 450/2/6
f 445/2/6 446/2/6 450/2/6
f 450/2/6 447/2/6 451/2/6
f 448/2/6 449/2/6 452/2/6
f 452/2/6 449/2/6 453/2/6
f 454/2/6 455/2/6 456/2/6
f 454/2/6 456/2/6 459/2/6
f 459/2/6 456/2/6 460/2/6
f 457/2/6 458/2/6 461/2/6
f 461/2/6 458/2/6 462/2/6
f 463/2/6 464/2/6 465/2/6
f 465/2/6 464/2/6 466/2/6
f 467/2/6 468/2/6 471/2/6
f 471/2/6 468/2/6 472/2/6
f 469/2/6 470/2/6 473/2/6
f 473/2/6 470/2/6 474/2/6
f 475/2/6 476/2/6 477/2/6
f 477/2/6 476/2/6 478/2/6
f 478/2/6 479/2/6 480/2/6
f 480/2/6 479/2/6 481/2/6
f 482/5/6 483/5/6 485/5/6
f 483/1/6 484/1/6 486/1/6
f 485/5/6 483/5/6 486/5/6
f 486/1/6 484/1/6 487/1/6
f 487/1/6 484/1/6 488/1/6
f 486/1/6 487/1/6 490/1/6
f 490/1/6 487/1/6 491/1/6
f 488/1/6 489/1/6 492/1/6
f 492/1/6 489/1/6 493/1/6
f 493/1/6 489/1/6 494/1/6
f 495/1/6 496/1/6 497/1/6
f 497/1/6 496/1/6 498/1/6
