# MagicaVoxel @ Ephtracy

# group
g Slim2

# material
mtllib Slim2.mtl
usemtl palette

# normals
vn -1 0 0
vn 1 0 0
vn 0 0 1
vn 0 0 -1
vn 0 -1 0
vn 0 1 0

# texcoords
vt 0.0292969 0.5
vt 0.0566406 0.5
vt 0.306641 0.5
vt 0.701172 0.5
vt 0.958984 0.5

# verts
v -6 3 -11
v -6 3 -12
v -6 8 -11
v -6 8 -12
v -5 3 -8
v -5 3 -10
v -5 5 -8
v -5 5 -10
v -4 3 -10
v -4 3 -11
v -4 5 -10
v -4 5 -11
v -3 2 -10
v -3 2 -11
v -3 3 -10
v -3 3 -11
v -3 3 -12
v -3 3 -13
v -3 5 -8
v -3 5 -11
v -3 5 -12
v -3 5 -13
v -3 6 -8
v -3 6 -11
v -2 2 -11
v -2 2 -12
v -2 3 -11
v -2 3 -12
v -2 3 -13
v -2 3 -14
v -2 5 -13
v -2 5 -14
v -2 6 -8
v -2 6 -11
v -2 7 -8
v -2 7 -11
v -2 8 -8
v -2 8 -11
v -1 2 -12
v -1 2 -13
v -1 3 -12
v -1 3 -13
v -1 5 -12
v -1 5 -13
v -1 6 -12
v -1 6 -13
v -1 8 -8
v -1 8 -11
v -1 9 -8
v -1 9 -11
v 0 9 -8
v 0 9 -10
v 0 10 -8
v 0 10 -10
v 2 4 -9
v 2 4 -10
v 2 5 -9
v 2 5 -10
v 3 3 -11
v 3 3 -12
v 3 4 -11
v 3 4 -12
v 4 4 -12
v 4 4 -13
v 4 5 -12
v 4 5 -13
v -1 2 -10
v -1 2 -12
v -1 3 -10
v -1 3 -12
v 0 3 -8
v 0 3 -10
v 0 5 -8
v 0 5 -10
v 2 2 -12
v 2 2 -13
v 2 3 -10
v 2 3 -12
v 2 3 -13
v 2 4 -10
v 2 4 -12
v 2 5 -8
v 2 5 -9
v 2 7 -8
v 2 7 -9
v 2 7 -11
v 2 7 -12
v 2 8 -9
v 2 8 -11
v 2 8 -12
v 2 9 -10
v 2 9 -11
v 2 10 -8
v 2 10 -10
v 3 3 -13
v 3 3 -14
v 3 4 -12
v 3 4 -13
v 3 5 -13
v 3 5 -14
v 3 6 -12
v 3 6 -13
v 4 4 -9
v 4 4 -10
v 4 5 -9
v 4 5 -10
v 4 6 -11
v 4 6 -12
v 4 7 -9
v 4 7 -11
v 4 7 -12
v 4 8 -9
v 4 8 -11
v 5 3 -11
v 5 3 -13
v 5 4 -11
v 5 4 -12
v 5 5 -11
v 5 5 -12
v 5 5 -13
v 5 6 -9
v 5 6 -11
v 5 6 -12
v 5 7 -9
v 5 7 -11
v 6 4 -10
v 6 4 -11
v 6 4 -12
v 6 5 -9
v 6 5 -10
v 6 5 -11
v 6 5 -12
v 6 6 -9
v 6 6 -11
v -5 3 -8
v -5 5 -8
v -3 5 -8
v -3 6 -8
v -2 6 -8
v -2 7 -8
v -2 8 -8
v -1 8 -8
v -1 9 -8
v 0 3 -8
v 0 5 -8
v 0 9 -8
v 0 10 -8
v 2 5 -8
v 2 7 -8
v 2 10 -8
v 2 4 -9
v 2 5 -9
v 2 7 -9
v 2 8 -9
v 4 4 -9
v 4 5 -9
v 4 7 -9
v 4 8 -9
v 5 6 -9
v 5 7 -9
v 6 5 -9
v 6 6 -9
v -3 2 -10
v -3 3 -10
v -1 2 -10
v -1 3 -10
v 0 3 -10
v 0 5 -10
v 2 3 -10
v 2 4 -10
v 2 5 -10
v 4 4 -10
v 4 5 -10
v 5 4 -10
v 5 5 -10
v 6 4 -10
v 6 5 -10
v -6 3 -11
v -6 8 -11
v -4 3 -11
v -4 5 -11
v -3 5 -11
v -3 6 -11
v -2 6 -11
v -2 7 -11
v -2 8 -11
v 3 3 -11
v 3 4 -11
v 5 3 -11
v 5 4 -11
v -1 2 -12
v -1 3 -12
v 2 2 -12
v 2 3 -12
v 2 4 -12
v 3 3 -12
v 3 4 -12
v -5 3 -10
v -5 5 -10
v -4 3 -10
v -4 5 -10
v 0 9 -10
v 0 10 -10
v 2 9 -10
v 2 10 -10
v -3 2 -11
v -3 3 -11
v -2 2 -11
v -2 3 -11
v -1 8 -11
v -1 9 -11
v 2 7 -11
v 2 8 -11
v 2 9 -11
v 4 6 -11
v 4 7 -11
v 4 8 -11
v 5 5 -11
v 5 6 -11
v 5 7 -11
v 6 5 -11
v 6 6 -11
v -6 3 -12
v -6 8 -12
v -3 3 -12
v -3 5 -12
v -2 2 -12
v -2 3 -12
v -2 7 -12
v -2 8 -12
v -1 2 -12
v -1 3 -12
v -1 5 -12
v -1 6 -12
v -1 7 -12
v 2 7 -12
v 2 8 -12
v 3 4 -12
v 3 6 -12
v 4 4 -12
v 4 5 -12
v 4 6 -12
v 4 7 -12
v 5 4 -12
v 5 5 -12
v 5 6 -12
v 6 4 -12
v 6 5 -12
v -3 3 -13
v -3 5 -13
v -2 3 -13
v -2 5 -13
v -1 2 -13
v -1 3 -13
v -1 5 -13
v -1 6 -13
v 2 2 -13
v 2 3 -13
v 3 3 -13
v 3 4 -13
v 3 5 -13
v 3 6 -13
v 4 4 -13
v 4 5 -13
v 5 3 -13
v 5 5 -13
v -2 3 -14
v -2 5 -14
v 3 3 -14
v 3 5 -14
v -3 2 -10
v -1 2 -10
v -3 2 -11
v -2 2 -11
v -2 2 -12
v -1 2 -12
v 2 2 -12
v -1 2 -13
v 2 2 -13
v -5 3 -8
v 0 3 -8
v -5 3 -10
v -4 3 -10
v -3 3 -10
v -1 3 -10
v 0 3 -10
v 2 3 -10
v -6 3 -11
v -4 3 -11
v -3 3 -11
v -2 3 -11
v 3 3 -11
v 5 3 -11
v -6 3 -12
v -3 3 -12
v -2 3 -12
v -1 3 -12
v 2 3 -12
v 3 3 -12
v -3 3 -13
v -2 3 -13
v -1 3 -13
v 2 3 -13
v 3 3 -13
v 5 3 -13
v -2 3 -14
v 3 3 -14
v 2 4 -9
v 4 4 -9
v 2 4 -10
v 4 4 -10
v 5 4 -10
v 6 4 -10
v 3 4 -11
v 5 4 -11
v 6 4 -11
v 2 4 -12
v 3 4 -12
v 5 4 -12
v 6 4 -12
v 0 5 -8
v 2 5 -8
v 2 5 -9
v 4 5 -9
v 6 5 -9
v 0 5 -10
v 2 5 -10
v 4 5 -10
v 5 5 -10
v 6 5 -10
v 3 4 -12
v 4 4 -12
v 3 4 -13
v 4 4 -13
v -5 5 -8
v -3 5 -8
v -5 5 -10
v -4 5 -10
v -4 5 -11
v -3 5 -11
v 5 5 -11
v 6 5 -11
v -3 5 -12
v -1 5 -12
v 4 5 -12
v 5 5 -12
v 6 5 -12
v -3 5 -13
v -2 5 -13
v -1 5 -13
v 3 5 -13
v 4 5 -13
v 5 5 -13
v -2 5 -14
v 3 5 -14
v -3 6 -8
v -2 6 -8
v 5 6 -9
v 6 6 -9
v -3 6 -11
v -2 6 -11
v 4 6 -11
v 5 6 -11
v 6 6 -11
v -1 6 -12
v 3 6 -12
v 4 6 -12
v 5 6 -12
v -1 6 -13
v 3 6 -13
v 4 7 -9
v 5 7 -9
v 2 7 -11
v 4 7 -11
v 5 7 -11
v 2 7 -12
v 4 7 -12
v -2 8 -8
v -1 8 -8
v 2 8 -9
v 4 8 -9
v -6 8 -11
v -2 8 -11
v -1 8 -11
v 2 8 -11
v 4 8 -11
v -6 8 -12
v -2 8 -12
v 2 8 -12
v -1 9 -8
v 0 9 -8
v 0 9 -10
v 2 9 -10
v -1 9 -11
v 2 9 -11
v 0 10 -8
v 2 10 -8
v 0 10 -10
v 2 10 -10

# faces
f 3/5/1 2/5/1 1/5/1
f 4/5/1 2/5/1 3/5/1
f 7/2/1 6/2/1 5/2/1
f 8/2/1 6/2/1 7/2/1
f 11/2/1 10/2/1 9/2/1
f 12/2/1 10/2/1 11/2/1
f 15/3/1 14/3/1 13/3/1
f 16/3/1 14/3/1 15/3/1
f 21/2/1 18/2/1 17/2/1
f 22/2/1 18/2/1 21/2/1
f 23/2/1 20/2/1 19/2/1
f 24/2/1 20/2/1 23/2/1
f 27/3/1 26/3/1 25/3/1
f 28/3/1 26/3/1 27/3/1
f 31/2/1 30/2/1 29/2/1
f 32/2/1 30/2/1 31/2/1
f 35/2/1 34/2/1 33/2/1
f 36/2/1 34/2/1 35/2/1
f 37/1/1 36/1/1 35/1/1
f 38/1/1 36/1/1 37/1/1
f 41/3/1 40/3/1 39/3/1
f 42/3/1 40/3/1 41/3/1
f 45/2/1 44/2/1 43/2/1
f 46/2/1 44/2/1 45/2/1
f 49/1/1 48/1/1 47/1/1
f 50/1/1 48/1/1 49/1/1
f 53/1/1 52/1/1 51/1/1
f 54/1/1 52/1/1 53/1/1
f 57/2/1 56/2/1 55/2/1
f 58/2/1 56/2/1 57/2/1
f 61/2/1 60/2/1 59/2/1
f 62/2/1 60/2/1 61/2/1
f 65/2/1 64/2/1 63/2/1
f 66/2/1 64/2/1 65/2/1
f 67/3/2 68/3/2 69/3/2
f 69/3/2 68/3/2 70/3/2
f 71/2/2 72/2/2 73/2/2
f 73/2/2 72/2/2 74/2/2
f 75/3/2 76/3/2 78/3/2
f 78/3/2 76/3/2 79/3/2
f 77/2/2 78/2/2 80/2/2
f 80/2/2 78/2/2 81/2/2
f 82/2/2 83/2/2 84/2/2
f 84/2/2 83/2/2 85/2/2
f 84/1/2 85/1/2 88/1/2
f 86/1/2 87/1/2 89/1/2
f 89/1/2 87/1/2 90/1/2
f 88/1/2 89/1/2 91/1/2
f 91/1/2 89/1/2 92/1/2
f 84/1/2 88/1/2 93/1/2
f 88/1/2 91/1/2 93/1/2
f 93/1/2 91/1/2 94/1/2
f 95/2/2 96/2/2 98/2/2
f 98/2/2 96/2/2 99/2/2
f 97/2/2 98/2/2 99/2/2
f 99/2/2 96/2/2 100/2/2
f 97/2/2 99/2/2 101/2/2
f 101/2/2 99/2/2 102/2/2
f 103/2/2 104/2/2 105/2/2
f 105/2/2 104/2/2 106/2/2
f 107/2/2 108/2/2 110/2/2
f 110/2/2 108/2/2 111/2/2
f 109/1/2 110/1/2 112/1/2
f 112/1/2 110/1/2 113/1/2
f 114/2/2 115/2/2 116/2/2
f 116/2/2 115/2/2 117/2/2
f 117/2/2 115/2/2 119/2/2
f 119/2/2 115/2/2 120/2/2
f 118/2/2 119/2/2 122/2/2
f 122/2/2 119/2/2 123/2/2
f 121/2/2 122/2/2 124/2/2
f 124/2/2 122/2/2 125/2/2
f 126/4/2 127/4/2 130/4/2
f 127/2/2 128/2/2 131/2/2
f 130/4/2 127/4/2 131/4/2
f 131/2/2 128/2/2 132/2/2
f 129/2/2 130/2/2 133/2/2
f 130/2/2 131/2/2 133/2/2
f 133/2/2 131/2/2 134/2/2
f 137/2/3 136/2/3 135/2/3
f 139/2/3 138/2/3 137/2/3
f 142/1/3 141/1/3 140/1/3
f 144/2/3 137/2/3 135/2/3
f 144/2/3 139/2/3 137/2/3
f 144/2/3 140/2/3 139/2/3
f 145/2/3 140/2/3 144/2/3
f 146/1/3 143/1/3 142/1/3
f 148/2/3 140/2/3 145/2/3
f 149/1/3 147/1/3 146/1/3
f 149/2/3 140/2/3 148/2/3
f 149/1/3 142/1/3 140/1/3
f 149/1/3 146/1/3 142/1/3
f 150/1/3 147/1/3 149/1/3
f 155/2/3 152/2/3 151/2/3
f 155/2/3 153/2/3 152/2/3
f 156/2/3 153/2/3 155/2/3
f 157/1/3 154/1/3 153/1/3
f 157/2/3 153/2/3 156/2/3
f 158/1/3 154/1/3 157/1/3
f 159/2/3 157/2/3 156/2/3
f 160/2/3 157/2/3 159/2/3
f 161/2/3 159/2/3 156/2/3
f 162/2/3 159/2/3 161/2/3
f 165/3/3 164/3/3 163/3/3
f 166/3/3 164/3/3 165/3/3
f 169/2/3 168/2/3 167/2/3
f 170/2/3 168/2/3 169/2/3
f 171/2/3 168/2/3 170/2/3
f 174/2/3 173/2/3 172/2/3
f 175/2/3 173/2/3 174/2/3
f 176/4/3 175/4/3 174/4/3
f 177/4/3 175/4/3 176/4/3
f 180/5/3 179/5/3 178/5/3
f 181/5/3 179/5/3 180/5/3
f 182/5/3 179/5/3 181/5/3
f 183/5/3 179/5/3 182/5/3
f 184/5/3 179/5/3 183/5/3
f 185/5/3 179/5/3 184/5/3
f 186/5/3 179/5/3 185/5/3
f 189/2/3 188/2/3 187/2/3
f 190/2/3 188/2/3 189/2/3
f 193/3/3 192/3/3 191/3/3
f 194/3/3 192/3/3 193/3/3
f 196/2/3 195/2/3 194/2/3
f 197/2/3 195/2/3 196/2/3
f 198/2/4 199/2/4 200/2/4
f 200/2/4 199/2/4 201/2/4
f 202/1/4 203/1/4 204/1/4
f 204/1/4 203/1/4 205/1/4
f 206/3/4 207/3/4 208/3/4
f 208/3/4 207/3/4 209/3/4
f 210/1/4 211/1/4 213/1/4
f 213/1/4 211/1/4 214/1/4
f 212/1/4 213/1/4 216/1/4
f 216/1/4 213/1/4 217/1/4
f 215/2/4 216/2/4 219/2/4
f 219/2/4 216/2/4 220/2/4
f 218/2/4 219/2/4 221/2/4
f 221/2/4 219/2/4 222/2/4
f 223/5/4 224/5/4 225/5/4
f 225/5/4 224/5/4 226/5/4
f 226/5/4 224/5/4 229/5/4
f 229/5/4 224/5/4 230/5/4
f 227/3/4 228/3/4 231/3/4
f 231/3/4 228/3/4 232/3/4
f 226/5/4 229/5/4 233/5/4
f 233/5/4 229/5/4 234/5/4
f 229/1/4 230/1/4 235/1/4
f 234/5/4 229/5/4 235/5/4
f 235/1/4 230/1/4 236/1/4
f 234/2/4 235/2/4 236/2/4
f 236/1/4 230/1/4 237/1/4
f 234/2/4 236/2/4 239/2/4
f 238/2/4 239/2/4 240/2/4
f 240/2/4 239/2/4 241/2/4
f 239/2/4 236/2/4 242/2/4
f 241/2/4 239/2/4 242/2/4
f 242/2/4 236/2/4 243/2/4
f 241/2/4 242/2/4 245/2/4
f 245/2/4 242/2/4 246/2/4
f 244/2/4 245/2/4 247/2/4
f 247/2/4 245/2/4 248/2/4
f 249/2/4 250/2/4 251/2/4
f 251/2/4 250/2/4 252/2/4
f 253/3/4 254/3/4 257/3/4
f 257/3/4 254/3/4 258/3/4
f 255/2/4 256/2/4 261/2/4
f 261/2/4 256/2/4 262/2/4
f 259/2/4 260/2/4 263/2/4
f 259/2/4 263/2/4 265/2/4
f 263/2/4 264/2/4 265/2/4
f 265/2/4 264/2/4 266/2/4
f 267/2/4 268/2/4 269/2/4
f 269/2/4 268/2/4 270/2/4
f 273/3/5 272/3/5 271/3/5
f 274/3/5 272/3/5 273/3/5
f 275/3/5 272/3/5 274/3/5
f 276/3/5 272/3/5 275/3/5
f 278/3/5 277/3/5 276/3/5
f 279/3/5 277/3/5 278/3/5
f 282/2/5 281/2/5 280/2/5
f 283/2/5 281/2/5 282/2/5
f 284/2/5 281/2/5 283/2/5
f 285/2/5 281/2/5 284/2/5
f 286/2/5 281/2/5 285/2/5
f 289/2/5 284/2/5 283/2/5
f 290/2/5 284/2/5 289/2/5
f 294/5/5 289/5/5 288/5/5
f 294/5/5 290/5/5 289/5/5
f 294/5/5 291/5/5 290/5/5
f 295/5/5 291/5/5 294/5/5
f 296/5/5 291/5/5 295/5/5
f 297/2/5 287/2/5 286/2/5
f 297/2/5 286/2/5 285/2/5
f 298/2/5 287/2/5 297/2/5
f 299/2/5 293/2/5 292/2/5
f 300/2/5 296/2/5 295/2/5
f 300/2/5 297/2/5 296/2/5
f 301/2/5 297/2/5 300/2/5
f 302/2/5 297/2/5 301/2/5
f 303/2/5 299/2/5 298/2/5
f 304/2/5 293/2/5 299/2/5
f 304/2/5 299/2/5 303/2/5
f 305/2/5 293/2/5 304/2/5
f 306/2/5 302/2/5 301/2/5
f 306/2/5 303/2/5 302/2/5
f 306/2/5 304/2/5 303/2/5
f 307/2/5 304/2/5 306/2/5
f 310/2/5 309/2/5 308/2/5
f 311/2/5 309/2/5 310/2/5
f 314/2/5 311/2/5 310/2/5
f 314/2/5 312/2/5 311/2/5
f 315/4/5 313/4/5 312/4/5
f 315/2/5 312/2/5 314/2/5
f 316/4/5 313/4/5 315/4/5
f 317/2/5 314/2/5 310/2/5
f 318/2/5 314/2/5 317/2/5
f 319/2/5 316/2/5 315/2/5
f 320/2/5 316/2/5 319/2/5
f 323/2/5 322/2/5 321/2/5
f 326/2/5 323/2/5 321/2/5
f 327/2/5 323/2/5 326/2/5
f 328/2/5 325/2/5 324/2/5
f 329/2/5 325/2/5 328/2/5
f 330/2/5 325/2/5 329/2/5
f 331/2/6 332/2/6 333/2/6
f 333/2/6 332/2/6 334/2/6
f 335/2/6 336/2/6 337/2/6
f 337/2/6 336/2/6 338/2/6
f 338/2/6 336/2/6 339/2/6
f 339/2/6 336/2/6 340/2/6
f 341/2/6 342/2/6 346/2/6
f 346/2/6 342/2/6 347/2/6
f 343/2/6 344/2/6 348/2/6
f 348/2/6 344/2/6 349/2/6
f 349/2/6 344/2/6 350/2/6
f 345/2/6 346/2/6 352/2/6
f 352/2/6 346/2/6 353/2/6
f 350/2/6 351/2/6 354/2/6
f 349/2/6 350/2/6 354/2/6
f 354/2/6 351/2/6 355/2/6
f 356/2/6 357/2/6 360/2/6
f 360/2/6 357/2/6 361/2/6
f 358/2/6 359/2/6 363/2/6
f 363/2/6 359/2/6 364/2/6
f 362/2/6 363/2/6 367/2/6
f 367/2/6 363/2/6 368/2/6
f 365/2/6 366/2/6 369/2/6
f 369/2/6 366/2/6 370/2/6
f 371/2/6 372/2/6 374/2/6
f 374/2/6 372/2/6 375/2/6
f 373/2/6 374/2/6 376/2/6
f 376/2/6 374/2/6 377/2/6
f 378/1/6 379/1/6 383/1/6
f 383/1/6 379/1/6 384/1/6
f 380/1/6 381/1/6 385/1/6
f 385/1/6 381/1/6 386/1/6
f 382/5/6 383/5/6 387/5/6
f 383/1/6 384/1/6 388/1/6
f 387/5/6 383/5/6 388/5/6
f 384/1/6 385/1/6 388/1/6
f 388/1/6 385/1/6 389/1/6
f 390/1/6 391/1/6 392/1/6
f 390/1/6 392/1/6 394/1/6
f 392/1/6 393/1/6 394/1/6
f 394/1/6 393/1/6 395/1/6
f 396/1/6 397/1/6 398/1/6
f 398/1/6 397/1/6 399/1/6
